PathFileType	4	(X/Y/Z)	Patient4_TMGait_0pt5_01_left_43.trc.trc
DataRate	CameraRate	NumFrames	NumMarkers	Units	OrigDataRate	OrigDataStartFrame	OrigNumFrames
76.923076923077	76.923076923077	4	33	mm	76.923076923077	18	       141
Frame#	Time	L.ASIS			Sacral			L.Shoulder			Chest			R.Shoulder			Neck			R.ASIS			R.Thigh.Superior			R.Thigh.Lateral			R.Thigh.Inferior			R.Patella			L.Thigh.Superior			L.Thigh.Lateral			L.Thigh.Inferior			L.Patella			L.Shank.Superior			L.Shank.Lateral			L.Shank.Inferior			R.Shank.Superior			R.Shank.Lateral			R.Shank.Inferior			R.Heel			R.Midfoot.Superior			R.Midfoot.Lateral			R.Toe			L.Heel			L.Midfoot.Lateral			L.Midfoot.Superior			L.Toe			L.Elbow			L.Wrist			R.Elbow			R.Wrist			
		X1	Y1	Z1	X2	Y2	Z2	X3	Y3	Z3	X4	Y4	Z4	X5	Y5	Z5	X6	Y6	Z6	X7	Y7	Z7	X8	Y8	Z8	X9	Y9	Z9	X10	Y10	Z10	X11	Y11	Z11	X12	Y12	Z12	X13	Y13	Z13	X14	Y14	Z14	X15	Y15	Z15	X16	Y16	Z16	X17	Y17	Z17	X18	Y18	Z18	X19	Y19	Z19	X20	Y20	Z20	X21	Y21	Z21	X22	Y22	Z22	X23	Y23	Z23	X24	Y24	Z24	X25	Y25	Z25	X26	Y26	Z26	X27	Y27	Z27	X28	Y28	Z28	X29	Y29	Z29	X30	Y30	Z30	X31	Y31	Z31	X32	Y32	Z32	X33	Y33	Z33	

18	57.471000000000	820.669885127547	961.616216830993	316.856291904588	626.104922330809	1014.883698767473	496.196565042393	800.589173343810	1436.211293290774	304.147524050323	920.092989380238	1357.606227733453	448.712134503512	865.163102233920	1431.156962263484	634.369635614520	821.062519726720	1494.256475437279	454.847205862595	859.032771681949	936.590846717899	589.168941791050	875.152452061701	731.145919286146	556.636279655546	786.534950637648	631.307239800697	622.105793576567	848.704684153949	571.858190877838	536.307691374842	838.029796766007	485.257971456415	542.159047346325	893.360085026833	776.497464450971	351.286726721009	849.101149113853	651.387116306192	273.569632412944	943.784570895229	588.750037147749	344.892336266398	971.981944815247	524.230095120951	340.923034564104	956.233453309583	452.670120304020	329.289718325882	894.203580404731	322.219028881987	273.978696446565	977.742854091068	223.703739533829	335.782152122685	805.649787113315	398.500860342921	549.682861909151	728.702113342201	298.683442628069	609.954478767023	764.050500654776	202.725139992976	545.974073283263	620.477246227320	41.940849284290	511.666221953722	790.728237567625	96.311878011967	552.649023101362	701.147024813988	36.055504864053	589.510759457188	909.223908804284	44.921243851454	585.852885640423	895.243767418497	37.780365868175	370.291926939281	972.410306423696	47.863163776229	293.623630837442	1036.984339652774	130.269514925704	317.068534342935	1173.381679063884	110.815733853105	297.123288766700	679.066825019637	1097.394591553736	208.590896555540	684.213096956635	837.130303318742	188.905882243341	971.668176161087	1106.162742426288	745.074610693870	1213.730526213275	1095.355622713012	665.082592287332	
19	57.484000000000	820.540420625239	960.711905758174	315.859927699652	626.667099409252	1014.353134556531	496.043969130583	800.209520018487	1435.376743698090	302.592713978610	920.347127444104	1357.007198497915	446.737774230624	866.119302900762	1430.892790706995	632.437227577942	821.220445785491	1493.628491748943	453.047936501482	859.861430461168	936.042866192216	588.194002891712	874.567684545964	730.130253462359	555.733447777456	785.477106016206	630.643205727910	621.510835571007	846.901788242867	570.814291209742	535.621753177393	835.552894152516	484.108734594686	541.437602860220	893.625728544452	776.084391444815	350.007346436841	848.099937728464	650.219296960544	273.746825741835	943.784830636335	588.189703143951	343.754637088866	971.751953989245	523.878831548258	340.533579235896	956.539684502481	452.196273287531	329.366880392566	895.103273128742	321.119661056025	275.193624887797	979.868329311566	223.525344082211	336.761525659143	802.319361181345	397.522150288252	549.090519263910	724.609002452905	298.440699624848	609.624721018654	758.730738642219	202.148912523544	545.593277339126	613.897491520461	41.949809218423	511.690470728817	784.180407372599	96.250019571388	552.543701245377	694.571360107529	36.041346307587	589.519299757333	902.625717951000	44.895185636926	585.854585781392	898.791361989650	37.865481982492	372.676990549069	975.541849898641	47.453260929399	295.604653819582	1040.072109448166	129.941316943740	318.241034821440	1176.310075866721	110.446655365812	297.906069247735	677.614897691469	1096.961810914025	207.650991239673	681.458486494593	836.721406400760	187.774801676217	975.852622930863	1107.045875540213	741.210704405278	1216.002115223426	1109.871989804930	656.797910114703	
20	57.497000000000	820.914150233487	959.678855070033	314.835886140713	627.525476622576	1013.640030265827	495.629967556060	799.776411552455	1434.461104331018	300.879331123374	920.562163896636	1356.463240648274	444.659749225790	866.870091401277	1430.604884880588	630.377249004918	821.214050722523	1492.934956106910	451.114902275674	860.930971897389	935.479202559836	587.205780486841	874.091029691165	729.028527349550	554.867173079899	784.414638635732	629.927542617725	620.905934421308	845.121968334621	569.679839347489	534.987268785399	833.035750989620	482.894086121254	540.728755175909	894.660925637674	775.535238992361	348.558567834407	847.339991944529	648.767605314213	274.076396988679	944.201260932782	587.369232040546	342.474590278793	971.681803127441	522.977493559540	340.090683300017	956.625604802533	451.065588991073	329.456920766490	894.905011158587	319.828722543667	276.428127162928	980.207773287427	222.610576158937	337.716006084628	798.958473264200	396.507910820497	548.501917533013	720.481315084382	298.177936848332	609.292010439605	753.391465580468	201.553633589029	545.218834468652	607.321963294701	41.930069717079	511.709527805182	777.635006094696	96.179492263355	552.444787944079	687.993523956258	36.006478863370	589.525481736586	896.025051291814	44.860079958145	585.866288547647	899.268856986200	37.991362503437	374.937731012673	975.530776412840	46.689219564219	297.348669198050	1040.701104833624	128.578821779574	319.314037617280	1176.534643095665	107.967614826101	298.286093212494	676.365897244491	1096.365156815766	206.502899476220	679.726072441074	836.148315085780	186.397527797850	979.778134810410	1107.822124895639	737.125807569013	1217.302255161768	1123.479901930225	648.571161112230	
21	57.510000000000	821.806320001512	958.510723876499	313.799270171649	628.683293764629	1012.743494967114	494.951398183715	799.317710153579	1433.446286413497	298.996401268847	920.756074860201	1355.965830821366	442.481384315937	867.416615031163	1430.289305748245	628.191062991477	821.053984283226	1492.166688642984	449.038547855526	862.244245975121	934.885524751566	586.213651601820	873.755585539384	727.830881685568	554.055464785496	783.363659784359	629.154046736502	620.283668608960	843.382334959943	568.450164271257	534.393725362975	830.488299530215	481.606058608091	540.013149721509	896.355477446926	774.754509331537	347.010332941711	846.810482027280	647.049804603953	274.485953371524	944.909534542372	586.243474876152	341.137103691284	971.663634818320	521.526086949066	339.650644311775	956.478014295172	449.326262252006	329.561481803077	893.806556927208	318.286923166042	277.599448269960	979.062924852551	220.983537167368	338.629276260536	795.579019268257	395.455751599454	547.901624008220	716.332310278503	297.894272279301	608.950162749201	748.035524359222	200.937110904559	544.843922875648	600.751197523251	41.879002657221	511.724298779092	771.088090558194	96.097289888576	552.345575682708	681.415418089579	35.948935555761	589.527875726816	889.425647110845	44.807463264888	585.886743279081	897.155657917998	38.055487943350	376.947776535580	972.937051917337	45.550343235018	298.811344224638	1039.325932749259	126.236124667866	320.332955129510	1174.575896212662	103.566538024748	298.464804118107	675.318999415062	1095.584204744590	205.166729377618	678.963890844286	835.387866564388	184.783344960725	983.451384105135	1108.496405206705	732.884201601133	1217.771703405435	1136.075179174081	640.451722534419	
